<svg width="144" height="144" viewBox="0 0 144 144" fill="none" xmlns="http://www.w3.org/2000/svg">
<path fill-rule="evenodd" clip-rule="evenodd" d="M51.4319 22.5102C52.7194 18.1677 56.7398 15 61.5001 15H82.5001C87.2604 15 91.2808 18.1677 92.5683 22.5102C93.8947 22.5315 94.9587 22.5957 95.9265 22.7882C101.877 23.9718 106.528 28.6233 107.712 34.5736C108.001 36.0281 108.001 37.6999 108 40.1528C108 40.2668 108 40.3825 108 40.5V93.2243C108 100.105 108 105.574 107.424 109.859C106.83 114.276 105.575 117.881 102.728 120.728C99.881 123.575 96.2763 124.83 91.8589 125.424C87.5744 126 82.1052 126 75.2246 126H68.7756C61.895 126 56.4259 126 52.1413 125.424C47.7239 124.83 44.1192 123.575 41.2722 120.728C38.4252 117.881 37.1699 114.276 36.576 109.859C36 105.574 36 100.105 36.0001 93.2244L36.0001 40.5C36.0001 40.3825 36.0001 40.2668 36.0001 40.1527C35.9994 37.6999 35.999 36.0281 36.2883 34.5736C37.4719 28.6233 42.1234 23.9718 48.0738 22.7882C49.0415 22.5957 50.1056 22.5315 51.4319 22.5102ZM51.4387 28.5126C50.3379 28.5306 49.7453 28.5733 49.2443 28.6729C45.6741 29.3831 42.8832 32.174 42.173 35.7442C42.0146 36.5405 42.0001 37.5683 42.0001 40.5V93C42.0001 100.156 42.0065 105.221 42.5225 109.059C43.027 112.811 43.9684 114.939 45.5148 116.485C47.0612 118.032 49.1887 118.973 52.9408 119.478C56.7791 119.994 61.8442 120 69.0001 120H75.0001C82.156 120 87.2211 119.994 91.0594 119.478C94.8115 118.973 96.939 118.032 98.4854 116.485C100.032 114.939 100.973 112.811 101.478 109.059C101.994 105.221 102 100.156 102 93V40.5C102 37.5683 101.986 36.5405 101.827 35.7442C101.117 32.174 98.3261 29.3831 94.7559 28.6729C94.2549 28.5733 93.6623 28.5306 92.5615 28.5126C91.2667 32.8434 87.252 36 82.5001 36H61.5001C56.7482 36 52.7335 32.8434 51.4387 28.5126ZM61.5001 21C59.0148 21 57.0001 23.0147 57.0001 25.5C57.0001 27.9853 59.0148 30 61.5001 30H82.5001C84.9854 30 87.0001 27.9853 87.0001 25.5C87.0001 23.0147 84.9854 21 82.5001 21H61.5001Z" fill="#F7EDE2"/>
<path opacity="0.5" d="M90 25.5C90 29.6421 86.6421 33 82.5 33H61.5C57.3579 33 54 29.6421 54 25.5C51.2121 25.5 49.8181 25.5 48.6589 25.7306C43.8986 26.6775 40.1775 30.3986 39.2306 35.1589C39 36.3181 39 37.7121 39 40.5V93C39 107.142 39 114.213 43.3934 118.607C47.7868 123 54.8579 123 69 123H75C89.1421 123 96.2132 123 100.607 118.607C105 114.213 105 107.142 105 93V40.5C105 37.7121 105 36.3181 104.769 35.1589C103.823 30.3986 100.101 26.6775 95.3411 25.7306C94.1819 25.5 92.7879 25.5 90 25.5Z" fill="#F7EDE2"/>
<path fill-rule="evenodd" clip-rule="evenodd" d="M62.242 66.9671L57.1942 83.7931C56.6231 85.6965 54.8712 87 52.884 87H51C49.3431 87 48 85.6569 48 84C48 82.3432 49.3431 81 51 81H51.7679L59.0371 56.7695C60.2181 52.8327 65.899 53.1648 66.6132 57.2124L72.5062 90.6059L74.8055 81.4086C75.3063 79.4053 77.1063 78 79.1712 78H93C94.6569 78 96 79.3432 96 81C96 82.6569 94.6569 84 93 84H80.3423L75.9354 101.628C74.9145 105.711 69.0427 105.505 68.3112 101.36L62.242 66.9671Z" fill="#F7EDE2"/>
</svg>
